<?xml version="1.0" encoding="utf-8"?>
<!-- Generator: Adobe Illustrator 22.0.0, SVG Export Plug-In . SVG Version: 6.00 Build 0)  -->
<svg version="1.1" id="Layer_1" xmlns="http://www.w3.org/2000/svg" xmlns:xlink="http://www.w3.org/1999/xlink" x="0px" y="0px"
	 viewBox="0 0 400 300" style="enable-background:new 0 0 400 300;" xml:space="preserve">
<style type="text/css">
	.st0{fill:#1B625F;}
</style>
<g>
	<path class="st0" d="M130.4,141v9.2h14.9c0.3,1.4,0.4,2.7,0.4,4.1c0,1.4-0.1,2.7-0.4,4.1h-14.9v14c-1.5,0.2-3.1,0.4-4.6,0.4
		c-1.6,0-3-0.2-4.6-0.4v-39.8h26c0.3,1.4,0.4,2.8,0.4,4.2c0,1.4-0.1,2.8-0.4,4.2H130.4z"/>
	<path class="st0" d="M185.8,172c-1.9,0.4-3.9,0.7-6,0.7c-1.1,0-2.4-0.1-3.4-0.3l-2.9-7.9h-14.8l-2.9,7.9c-1.4,0.2-2.9,0.2-4.2,0.2
		c-1.8,0-3.5-0.2-4.9-0.7l14.9-39.4c1.5-0.3,3.2-0.4,4.8-0.4c1.6,0,3,0.1,4.5,0.4L185.8,172z M170.7,156.9l-3.3-9.2l-1.2-3.8
		l-1.1,3.8l-3.3,9.2H170.7z"/>
	<path class="st0" d="M222.5,172c-2,0.6-5.1,0.7-7.8,0.7c-0.8,0-1.7,0-2.4-0.1l-8.2-13.9h-0.4c-1.5,0-3,0-4.6-0.1v13.8
		c-1.5,0.3-3,0.4-4.6,0.4c-1.6,0-3-0.1-4.7-0.4v-39.6c3.9-0.8,9-1.3,13.4-1.3c12,0,17,5.1,17,12.9c0,5.9-2.8,10-7.1,12.2L222.5,172z
		 M199.2,151.1c1.7,0.1,3.3,0.1,4.9,0.1c4.8,0,6.8-2.6,6.8-6.1s-2.2-5.6-6.8-5.6c-1.7,0-3.2,0.1-4.8,0.2V151.1z"/>
	<path class="st0" d="M268.9,132.8v39.7c-1.5,0.2-2.9,0.4-4.2,0.4c-1.4,0-2.7-0.1-4.3-0.4v-19.2l0.3-5.8l-1.5,4.5l-6.8,17.2
		c-1.4,0.2-2.7,0.2-3.8,0.2c-1.1,0-2.4-0.1-3.9-0.2l-7.2-17.2l-1.4-3.8l0.2,5.1v19.2c-1.5,0.2-3,0.4-4.3,0.4c-1.4,0-2.6-0.1-4.2-0.4
		v-39.6c1.2-0.3,2.7-0.5,4.6-0.5c1.6,0,3.3,0.1,5,0.4l10.7,24.6l0.7,2l0.6-2l9.9-24.6c1.8-0.2,2.9-0.4,4.9-0.4
		C265.7,132.4,267.2,132.5,268.9,132.8z"/>
	<path class="st0" d="M301.3,171.4c0,0.3-0.1,0.7-0.2,1.1h-21.9v-39.8c0.4-0.1,0.7-0.2,1.1-0.2s0.8,0.1,1.2,0.2v37.7h19.6
		C301.2,170.7,301.3,171,301.3,171.4z"/>
	<path class="st0" d="M315.3,155.8v16.7c-0.3,0.1-0.7,0.2-1.2,0.2s-0.8-0.1-1.1-0.2v-16.7l-15.2-23.1c0.5-0.1,1.2-0.2,1.7-0.2
		c0.2,0,0.6,0,0.8,0.1l13.5,20.3l0.4,0.9l0.4-0.9l12.8-20.3c0.2-0.1,0.7-0.1,1-0.1c0.4,0,1.1,0.1,1.5,0.2L315.3,155.8z"/>
</g>
<g id="Outline">
	<path class="st0" d="M199.1,283.4c-7.9,0-14.1-0.4-18.7-0.7c-20.6-1.3-48.8-3-79.6-20.7c-26.9-15.4-41.4-34.8-49.2-45.3
		c-11.2-14.9-13.9-23.7-15.1-30.3c-1-5.4-0.8-8.9-0.5-14.1c0.2-3.3,0.4-7.5,0.4-13.5c0-10.4-0.7-15.7-1.2-20
		c-0.5-3.6-0.9-6.9-0.7-11.9C35.1,107.8,43,94.3,51.3,80C57.5,69.4,67.9,51.6,89,37.5c17.4-11.7,34.4-15.5,44.5-17.8
		c11.7-2.7,20.8-3.3,30.4-3.9c9.4-0.6,15.4-0.5,26.4-0.3c5.9,0.1,13.1,0.2,23.1,0.3c13.2,0.1,17.8,0,20.1-0.1c1.8,0,2.3-0.1,4.3,0.1
		c32.9,2.5,56.5,18.3,86.5,38.2c5.5,3.7,11.9,8.3,18.1,16.1c2.6,3.4,10.6,13.6,13.2,28.5c0.8,4.7,0.6,7.3,0.5,9.9
		c-0.2,2.7-0.4,5.5,0.5,11.4c0.6,4,1.3,6.4,2.2,9.8c0.7,2.5,1.5,5.6,2.6,10.3c0,0.1,2.6,11.3,3.9,20.5c2.2,15.9-4.8,35.2-20.9,57.4
		c-18.4,25.4-41.3,37.6-52.3,43.4C264.3,275.9,233,283.4,199.1,283.4z M178.1,21.2c-4.6,0-8.7,0.1-13.8,0.5
		c-9.4,0.6-18.3,1.2-29.5,3.8c-9.7,2.2-26,5.9-42.5,17C72.4,55.8,62.4,72.9,56.5,83.1c-7.9,13.6-15.4,26.5-16,44.1
		c-0.1,4.5,0.2,7.5,0.7,11c0.6,4.5,1.3,10.1,1.3,20.8c0,6.2-0.2,10.4-0.4,13.8c-0.3,5.2-0.5,8,0.4,12.7c1.1,5.9,3.6,13.9,14,27.8
		c7.6,10.1,21.6,28.9,47.4,43.7c29.6,16.9,57,18.7,77,19.9c4.5,0.3,10.7,0.7,18.4,0.7c32.9,0,63.3-7.3,90.2-21.6
		c10.6-5.6,32.6-17.4,50.2-41.6c15.1-20.9,21.8-38.7,19.8-53c-1.3-8.9-3.8-19.9-3.8-20c-1-4.5-1.9-7.6-2.5-10
		c-1-3.5-1.7-6.1-2.3-10.5c-1-6.5-0.8-9.8-0.6-12.6c0.2-2.5,0.3-4.6-0.4-8.5c-2.3-13.4-9.6-22.7-12-25.8
		c-5.6-7.2-11.6-11.4-16.7-14.8c-29.2-19.4-52.3-34.8-83.6-37.2c-1.7-0.1-2-0.1-3.7-0.1c-2.3,0.1-7,0.2-20.3,0.1
		c-10-0.1-17.3-0.2-23.1-0.3C185.5,21.3,181.7,21.2,178.1,21.2z"/>
</g>
</svg>
